<svg width="512" height="512" viewBox="0 0 512 512" fill="none" xmlns="http://www.w3.org/2000/svg">
  <!-- 背景圆形 -->
  <circle cx="256" cy="256" r="248" fill="url(#blue_gradient)" />
  
  <!-- 外环 -->
  <circle cx="256" cy="256" r="248" stroke="white" stroke-width="4" stroke-opacity="0.8" fill="none" />
  
  <!-- 对话气泡形状 -->
  <path d="M346 186C346 164.461 328.539 147 307 147H204C182.461 147 165 164.461 165 186V255C165 276.539 182.461 294 204 294H232L256 326L280 294H307C328.539 294 346 276.539 346 255V186Z" fill="white" />
  
  <!-- 人工智能图标 - 简化的神经网络 -->
  <circle cx="206" cy="220" r="12" fill="url(#point_gradient)" />
  <circle cx="256" cy="220" r="12" fill="url(#point_gradient)" />
  <circle cx="306" cy="220" r="12" fill="url(#point_gradient)" />
  
  <line x1="206" y1="220" x2="256" y2="220" stroke="#2563EB" stroke-width="3" />
  <line x1="256" y1="220" x2="306" y2="220" stroke="#2563EB" stroke-width="3" />
  
  <circle cx="230" cy="260" r="12" fill="url(#point_gradient)" />
  <circle cx="282" cy="260" r="12" fill="url(#point_gradient)" />
  
  <line x1="206" y1="220" x2="230" y2="260" stroke="#2563EB" stroke-width="3" />
  <line x1="206" y1="220" x2="282" y2="260" stroke="#2563EB" stroke-width="3" />
  <line x1="256" y1="220" x2="230" y2="260" stroke="#2563EB" stroke-width="3" />
  <line x1="256" y1="220" x2="282" y2="260" stroke="#2563EB" stroke-width="3" />
  <line x1="306" y1="220" x2="230" y2="260" stroke="#2563EB" stroke-width="3" />
  <line x1="306" y1="220" x2="282" y2="260" stroke="#2563EB" stroke-width="3" />
  
  <!-- 定义渐变 -->
  <defs>
    <linearGradient id="blue_gradient" x1="0" y1="0" x2="512" y2="512" gradientUnits="userSpaceOnUse">
      <stop offset="0%" stop-color="#3B82F6" />
      <stop offset="100%" stop-color="#1E40AF" />
    </linearGradient>
    
    <linearGradient id="point_gradient" x1="0" y1="0" x2="24" y2="24" gradientUnits="userSpaceOnUse">
      <stop offset="0%" stop-color="#93C5FD" />
      <stop offset="100%" stop-color="#3B82F6" />
    </linearGradient>
  </defs>
</svg> 